<svg id="Layer_1" data-name="Layer 1" xmlns="http://www.w3.org/2000/svg" viewBox="0 0 32 32"><defs><style>.cls-1{fill:#e42a36;}</style></defs><path class="cls-1" d="M17.52,30.7v.75a14.84,14.84,0,0,1-4.73-.73,15.28,15.28,0,0,1-7.4-5.14A15.45,15.45,0,0,1,17.52.55V1.3A14.45,14.45,0,0,0,7.09,5.67,14.24,14.24,0,0,0,2.84,16.14,14.22,14.22,0,0,0,7.19,26.43,14.51,14.51,0,0,0,17.52,30.7Z"/><path class="cls-1" d="M15.11,2.3l.13.74A13,13,0,0,0,6.52,8.82a12.71,12.71,0,0,0-2,9.13,12.74,12.74,0,0,0,5.32,8.71,13,13,0,0,0,10,2.29l.14.75A13.93,13.93,0,0,1,8.14,26.28a13.91,13.91,0,0,1,7-24Z"/><path class="cls-1" d="M13.29,4.39a.21.21,0,0,1,0,.06c.07.21.15.42.22.62a11.56,11.56,0,0,0-7.21,7.87A11.15,11.15,0,0,0,7,20.77,11.46,11.46,0,0,0,13,26.69a11.68,11.68,0,0,0,8.48.21l.25.7A12.35,12.35,0,1,1,13.29,4.39Z"/><path class="cls-1" d="M12.1,6.6l.39.68a10,10,0,0,0-4.88,7.08,9.69,9.69,0,0,0,1.45,7.05,10.06,10.06,0,0,0,13.5,3.3l.39.68a10.77,10.77,0,0,1-10.23.3,10.67,10.67,0,0,1-6-9.82A10.75,10.75,0,0,1,12.1,6.6Z"/><path class="cls-1" d="M23,22.51l.5.61A9.19,9.19,0,0,1,15.11,25a9.12,9.12,0,0,1-6.7-7.27,9.2,9.2,0,0,1,3.14-8.81l.5.59a8.45,8.45,0,0,0-3,7.11A8.25,8.25,0,0,0,11.52,22,8.5,8.5,0,0,0,23,22.51Z"/><path class="cls-1" d="M22.86,20.47l.6.5A7.73,7.73,0,1,1,11.61,11l.58.48a6.93,6.93,0,0,0-1.51,5.73,6.68,6.68,0,0,0,2.57,4.25,6.8,6.8,0,0,0,5,1.43A6.89,6.89,0,0,0,22.86,20.47Z"/><path class="cls-1" d="M22.22,18.7l.67.39a6.2,6.2,0,0,1-10.74,0,6.2,6.2,0,0,1,0-6.17l.68.39a5.38,5.38,0,0,0-.38,4.61,5.39,5.39,0,0,0,5.21,3.52,5.44,5.44,0,0,0,4.56-2.71Z"/><path class="cls-1" d="M13.17,14.41l.71.26a3.87,3.87,0,0,0,.43,3.48,3.77,3.77,0,0,0,2.19,1.58,3.89,3.89,0,0,0,4.67-2.41l.73.26a4.53,4.53,0,0,1-3.24,2.91,4.46,4.46,0,0,1-4.74-1.58A4.53,4.53,0,0,1,13.17,14.41Z"/><path class="cls-1" d="M14.48,15.46l.75.13a2.35,2.35,0,0,0,.62,2,2.19,2.19,0,0,0,1.28.69,2.36,2.36,0,0,0,2.7-1.9l.73.13a3.09,3.09,0,1,1-6.08-1.07Z"/><path class="cls-1" d="M18.31,16h.76a1.49,1.49,0,0,1-.64,1.25,1.46,1.46,0,0,1-1.65.1A1.51,1.51,0,0,1,16,16h.76a.8.8,0,0,0,.32.62.74.74,0,0,0,.49.16C18,16.75,18.22,16.49,18.31,16Z"/></svg>