<svg id="Layer_1" data-name="Layer 1" xmlns="http://www.w3.org/2000/svg" viewBox="0 0 731.17 213.8"><defs><style>.cls-1{font-size:63.28px;font-family:AtkinsonHyperlegible-Regular, Atkinson Hyperlegible;}.cls-2{letter-spacing:-0.02em;}.cls-3{letter-spacing:0.02em;}.cls-4{letter-spacing:0em;}.cls-5{font-family:AtkinsonHyperlegible-Bold, Atkinson Hyperlegible;font-weight:700;}.cls-6{fill:#e42a36;}</style></defs><text class="cls-1" transform="translate(161.15 108.42)"><tspan class="cls-2">C</tspan><tspan x="40.31" y="0">OMMUNI</tspan><tspan class="cls-3" x="303.55" y="0">T</tspan><tspan class="cls-4" x="340.06" y="0">Y</tspan><tspan class="cls-5"><tspan x="0" y="52.37">SCIENCE MUSEUM</tspan></tspan></text><path class="cls-6" d="M103.5,202.73v4.88a96.14,96.14,0,0,1-30.37-4.71,98.06,98.06,0,0,1-47.48-33A99.1,99.1,0,0,1,16.8,60.16c20.4-36.39,57-51.34,86.67-50.91v4.81c-26.08.45-48.61,9.52-66.94,28.08S9.06,83.24,9.3,109.29c.25,25.74,9.63,47.91,27.92,66.05S77.76,202.29,103.5,202.73Z"/><path class="cls-6" d="M88,20.5l.82,4.73c-23.8,4.71-42.64,16.87-56,37.1C21.15,80.16,17,99.87,20.14,120.93c3.51,23.33,15,42.08,34.12,55.89s40.61,18.33,63.93,14.73c.28,1.55.56,3.12.86,4.8a89.1,89.1,0,0,1-75.74-22A89.26,89.26,0,0,1,88,20.5Z"/><path class="cls-6" d="M76.37,33.9a3.36,3.36,0,0,1,.2.43c.49,1.33,1,2.66,1.44,4-23.49,9.48-39.35,26-46.25,50.48A71.49,71.49,0,0,0,35.7,139c8,17.64,21.12,30.25,38.91,38A75,75,0,0,0,129,178.4q.81,2.25,1.64,4.5c-18.42,7.3-46.91,8.06-71.77-8.82A79.37,79.37,0,0,1,25.84,92C32.54,60.75,55.51,41,76.37,33.9Z"/><path class="cls-6" d="M68.72,48.1l2.5,4.34C54.07,63,43.26,78,39.89,97.91a62.6,62.6,0,0,0,9.27,45.24,64.6,64.6,0,0,0,86.66,21.15c.8,1.4,1.61,2.8,2.52,4.37-21.64,11.53-43.58,12.62-65.67,1.94a68.47,68.47,0,0,1-38.57-63C34.73,81.62,46.74,62,68.72,48.1Z"/><path class="cls-6" d="M138.64,150.23l3.25,3.86c-16.12,12.65-34,16.95-53.9,11.77a58.65,58.65,0,0,1-43-46.67C41.17,96.76,48.36,78,65.16,62.67l3.21,3.82C54.74,78.66,48,93.78,49.07,112.06a52.71,52.71,0,0,0,15.89,35A54.59,54.59,0,0,0,138.64,150.23Z"/><path class="cls-6" d="M137.78,137.12l3.83,3.21c-10.61,12-23.8,18.1-39.77,17.65A49.54,49.54,0,0,1,65.55,76.54l3.71,3.09c-8.66,10.82-12.07,23.07-9.68,36.73a43,43,0,0,0,16.48,27.26,43.35,43.35,0,0,0,32.18,9.18C120.13,151.57,129.92,146.15,137.78,137.12Z"/><path class="cls-6" d="M133.64,125.76l4.33,2.5c-6.8,11.07-16.49,17.74-29.33,19.5a39.22,39.22,0,0,1-39.59-19.71c-7.24-13.09-6.92-26.3,0-39.55L73.37,91c-5.16,9.52-6.11,19.38-2.41,29.56a34,34,0,0,0,16.43,18.71,33.4,33.4,0,0,0,17,3.87,34.17,34.17,0,0,0,16.83-4.83A34.88,34.88,0,0,0,133.64,125.76Z"/><path class="cls-6" d="M75.59,98.22l4.53,1.65c-2.52,7.92-1.83,15.42,2.79,22.38a24,24,0,0,0,14,10.1,24.91,24.91,0,0,0,30-15.46l4.68,1.69c-3.88,9.67-10.65,16.21-20.74,18.64-12.11,2.91-22.47-.57-30.47-10.14A29.13,29.13,0,0,1,75.59,98.22Z"/><path class="cls-6" d="M84,105l4.78.84a15,15,0,0,0,4,13,14,14,0,0,0,8.22,4.42c6.09.89,14.94-1.78,17.3-12.2l4.71.84A19.81,19.81,0,1,1,84,105Z"/><path class="cls-6" d="M108.57,108.41h4.86a9.91,9.91,0,0,1-14.72,8.68,9.63,9.63,0,0,1-5.13-8.66H98.5a5,5,0,0,0,2,4,4.84,4.84,0,0,0,3.16,1C106.32,113.27,108,111.59,108.57,108.41Z"/></svg>